<svg width="28" height="29" viewBox="0 0 28 29" fill="none" xmlns="http://www.w3.org/2000/svg">
<path d="M14.0779 11.5657L3.57345 0.688006C3.23914 0.341813 2.78546 0.13829 2.31222 0.122211C1.83899 0.10613 1.38496 0.278808 1.05002 0.602259C0.715073 0.92571 0.526654 1.37344 0.52621 1.84695C0.525764 2.32046 0.71333 2.78096 1.04764 3.12715L11.5521 14.0048L1.02787 24.1679C0.692929 24.4914 0.50451 24.9391 0.504065 25.4126C0.50362 25.8861 0.691186 26.3466 1.0255 26.6928C1.35981 27.039 1.81349 27.2425 2.28673 27.2586C2.75996 27.2747 3.21399 27.102 3.54894 26.7786L14.0731 16.6154L24.5776 27.4931C24.9149 27.8337 25.3675 28.0332 25.8388 28.0493C26.3102 28.0653 26.7631 27.8965 27.101 27.5789C27.436 27.2554 27.6244 26.8077 27.6248 26.3342C27.6253 25.8607 27.4377 25.4002 27.1034 25.054L16.599 14.1763L27.1232 4.0132C27.4581 3.68974 27.6465 3.24202 27.647 2.7685C27.6474 2.295 27.4598 1.83449 27.1255 1.4883C26.7882 1.14772 26.3357 0.948166 25.8643 0.932149C25.3929 0.916134 24.94 1.08492 24.6021 1.40256L14.0779 11.5657Z" fill="white"/>
</svg>
