<svg width="225" height="225" viewBox="0 0 225 225" fill="none" xmlns="http://www.w3.org/2000/svg">
<path d="M42.2278 182.772C44.6785 197.344 51.63 210.782 62.1069 221.202L65.9026 224.997H71.2694C86.0455 225.038 100.464 220.451 112.5 211.88C124.536 220.452 138.954 225.04 153.731 225H159.097L162.893 221.205C173.37 210.785 180.322 197.347 182.772 182.776C197.344 180.325 210.782 173.373 221.202 162.896L224.997 159.101V153.734C225.039 138.957 220.452 124.537 211.88 112.5C220.452 100.464 225.04 86.0458 225 71.2694V65.9026L221.205 62.1069C210.785 51.63 197.347 44.6785 182.776 42.2278C180.325 27.6563 173.373 14.2179 162.896 3.79841L159.101 0.00350575H153.734C138.957 -0.0380142 124.538 4.54863 112.5 13.1197C100.464 4.54763 86.0459 -0.0401758 71.2694 0.000265078H65.9026L62.1069 3.79518C51.63 14.2147 44.6785 27.6531 42.2278 42.2245C27.6564 44.6752 14.218 51.6268 3.79842 62.1037L0.00350266 65.8994V71.2662C-0.0380173 86.0433 4.54862 100.463 13.1197 112.5C4.54763 124.536 -0.0401758 138.954 0.000265079 153.731V159.097L3.79517 162.893C14.2156 173.371 27.6552 180.322 42.2278 182.772ZM39.2022 103.338C32.0159 96.1952 27.4504 86.836 26.2448 76.7755C34.2108 70.5117 44.0578 67.1198 54.1915 67.149H67.149V54.1915C67.1196 44.0589 70.5106 34.2129 76.7731 26.2472C86.8336 27.4529 96.1928 32.0183 103.336 39.2046L112.5 48.3607L121.662 39.199C128.805 32.0126 138.164 27.4472 148.224 26.2415C154.489 34.2084 157.881 44.0567 157.851 54.1915V67.149H170.809C180.941 67.1196 190.787 70.5106 198.753 76.7731C197.547 86.8336 192.982 96.1928 185.795 103.336L176.639 112.5L185.802 121.663C192.988 128.806 197.554 138.165 198.759 148.225C190.792 154.49 180.944 157.881 170.809 157.851H157.851V170.809C157.88 180.941 154.489 190.787 148.227 198.753C138.166 197.547 128.807 192.982 121.664 185.795L112.5 176.639L103.337 185.799C96.1944 192.985 86.8352 197.55 76.7747 198.756C70.511 190.79 67.1193 180.942 67.149 170.809V157.851H54.1915C44.0589 157.88 34.2129 154.489 26.2472 148.227C27.4529 138.166 32.0183 128.807 39.2046 121.664L48.3607 112.5L39.2022 103.338Z" fill="white"/>
</svg>
