<svg width="391" height="151" viewBox="0 0 391 151" fill="none" xmlns="http://www.w3.org/2000/svg">
<path d="M319.317 0C293.351 0.0246907 267.927 7.48171 246.006 21.5023C224.085 35.523 206.569 55.5301 195.5 79.1929C184.431 55.5301 166.915 35.523 144.994 21.5023C123.073 7.48171 97.6489 0.0246907 71.6833 0H0V13.1304C0 89.1524 61.3903 151 136.85 151H195.5H254.15C329.61 151 391 89.1524 391 13.1304V0H319.317ZM136.85 124.739C80.1705 124.739 33.2969 81.6393 26.8291 26.2609H71.6833C128.363 26.2609 175.236 69.3607 181.704 124.739H136.85ZM254.15 124.739H209.296C215.764 69.3607 262.637 26.2609 319.317 26.2609H364.171C357.703 81.6393 310.83 124.739 254.15 124.739Z" fill="white"/>
</svg>
