<svg width="314" height="77" viewBox="0 0 314 77" fill="none" xmlns="http://www.w3.org/2000/svg">
<path d="M109.986 55.0909V66H109.315V55.7088H103.067V66H102.401V55.0909H109.986ZM112.733 69.0682V57.8182H113.367V59.6452H113.447C113.575 59.2937 113.754 58.9705 113.985 58.6758C114.22 58.381 114.509 58.1449 114.853 57.9673C115.201 57.7862 115.61 57.6957 116.079 57.6957C116.739 57.6957 117.314 57.8768 117.804 58.239C118.294 58.6012 118.674 59.1019 118.944 59.7411C119.214 60.3768 119.349 61.1065 119.349 61.9304C119.349 62.7543 119.212 63.4858 118.939 64.125C118.669 64.7607 118.289 65.2614 117.799 65.6271C117.313 65.9893 116.743 66.1705 116.089 66.1705C115.624 66.1705 115.216 66.0817 114.864 65.9041C114.516 65.7266 114.223 65.4904 113.985 65.1957C113.751 64.8974 113.571 64.5707 113.447 64.2156H113.383V69.0682H112.733ZM113.373 61.9251C113.373 62.6211 113.479 63.2443 113.692 63.7947C113.905 64.3416 114.211 64.7749 114.608 65.0945C115.006 65.4105 115.48 65.5685 116.031 65.5685C116.588 65.5685 117.066 65.4087 117.464 65.0891C117.865 64.766 118.17 64.3292 118.38 63.7788C118.593 63.2283 118.699 62.6104 118.699 61.9251C118.699 61.2397 118.595 60.6236 118.385 60.0767C118.176 59.5298 117.872 59.0984 117.474 58.7823C117.076 58.4627 116.595 58.3029 116.031 58.3029C115.473 58.3029 114.995 58.4609 114.598 58.777C114.204 59.0895 113.9 59.5192 113.687 60.0661C113.477 60.6094 113.373 61.229 113.373 61.9251ZM123.764 66.1758C123.291 66.1758 122.858 66.0817 122.464 65.8935C122.073 65.7053 121.759 65.43 121.521 65.0678C121.287 64.7056 121.17 64.2653 121.17 63.7468C121.17 63.4059 121.23 63.1058 121.351 62.8466C121.471 62.5874 121.658 62.3636 121.91 62.1754C122.162 61.9872 122.485 61.8327 122.879 61.712C123.274 61.5877 123.744 61.4918 124.291 61.4244C124.706 61.3746 125.078 61.3267 125.404 61.2805C125.731 61.2308 125.987 61.1545 126.171 61.0515C126.36 60.9485 126.454 60.7923 126.454 60.5827V60.2418C126.454 59.6452 126.265 59.1712 125.889 58.8196C125.513 58.468 124.994 58.2923 124.334 58.2923C123.748 58.2923 123.254 58.4219 122.853 58.6811C122.455 58.9368 122.176 59.267 122.017 59.6719L121.404 59.4428C121.56 59.0522 121.786 58.7273 122.08 58.468C122.379 58.2088 122.72 58.0153 123.103 57.8874C123.49 57.7596 123.895 57.6957 124.318 57.6957C124.683 57.6957 125.031 57.7472 125.362 57.8501C125.695 57.9531 125.992 58.1094 126.251 58.3189C126.514 58.5284 126.722 58.7965 126.874 59.1232C127.027 59.4464 127.104 59.8335 127.104 60.2844V66H126.454V64.5245H126.406C126.264 64.8299 126.068 65.1087 125.82 65.3608C125.575 65.6094 125.278 65.8082 124.93 65.9574C124.586 66.103 124.197 66.1758 123.764 66.1758ZM123.828 65.5739C124.339 65.5739 124.792 65.4496 125.186 65.201C125.584 64.9489 125.894 64.6044 126.118 64.1676C126.342 63.7308 126.454 63.2354 126.454 62.6815V61.4776C126.372 61.5487 126.253 61.6126 126.097 61.6694C125.944 61.7227 125.77 61.7706 125.575 61.8132C125.383 61.8523 125.181 61.8878 124.968 61.9197C124.758 61.9482 124.554 61.9748 124.355 61.9996C123.758 62.0707 123.272 62.1808 122.895 62.3299C122.523 62.4755 122.249 62.6673 122.075 62.9052C121.905 63.1431 121.819 63.4308 121.819 63.7681C121.819 64.3256 122.011 64.766 122.395 65.0891C122.778 65.4123 123.256 65.5739 123.828 65.5739ZM135.81 57.8182V65.3661H136.401V68.658H135.751V66H129.86V57.8182H130.505V65.3821H135.165V57.8182H135.81ZM141.612 61.696V62.3139H137.942V61.696H141.612ZM138.395 57.8182V66H137.75V57.8182H138.395ZM144.59 66.1705C143.915 66.1705 143.313 65.9893 142.784 65.6271C142.258 65.2614 141.845 64.7589 141.543 64.1197C141.245 63.4805 141.095 62.7525 141.095 61.9357C141.095 61.1154 141.245 60.3874 141.543 59.7518C141.845 59.1126 142.258 58.6101 142.784 58.2443C143.313 57.8786 143.915 57.6957 144.59 57.6957C145.264 57.6957 145.863 57.8786 146.385 58.2443C146.91 58.6101 147.324 59.1126 147.626 59.7518C147.931 60.391 148.084 61.119 148.084 61.9357C148.084 62.7525 147.933 63.4805 147.631 64.1197C147.329 64.7589 146.916 65.2614 146.39 65.6271C145.865 65.9893 145.264 66.1705 144.59 66.1705ZM144.59 65.5685C145.161 65.5685 145.66 65.407 146.087 65.0838C146.516 64.7607 146.848 64.3239 147.083 63.7734C147.317 63.223 147.434 62.6104 147.434 61.9357C147.434 61.261 147.315 60.6502 147.077 60.1033C146.843 59.5529 146.513 59.1161 146.087 58.793C145.66 58.4663 145.161 58.3029 144.59 58.3029C144.018 58.3029 143.517 58.4663 143.088 58.793C142.661 59.1161 142.329 59.5529 142.092 60.1033C141.857 60.6502 141.74 61.261 141.74 61.9357C141.74 62.6104 141.857 63.223 142.092 63.7734C142.329 64.3239 142.661 64.7607 143.088 65.0838C143.514 65.407 144.014 65.5685 144.59 65.5685ZM150.497 66V57.8182H153.603C154.465 57.8182 155.14 57.9975 155.627 58.3562C156.113 58.7113 156.355 59.1996 156.351 59.821C156.348 60.2969 156.213 60.6911 155.946 61.0036C155.68 61.3125 155.309 61.538 154.833 61.68C155.163 61.7475 155.456 61.8736 155.712 62.0582C155.971 62.2429 156.175 62.479 156.324 62.7667C156.474 63.0508 156.548 63.3828 156.548 63.7628C156.548 64.196 156.443 64.5813 156.234 64.9187C156.024 65.2525 155.73 65.517 155.35 65.7124C154.973 65.9041 154.533 66 154.029 66H150.497ZM151.126 65.3874H154.029C154.593 65.3874 155.046 65.2347 155.387 64.9293C155.728 64.6239 155.898 64.2191 155.898 63.7148C155.898 63.2212 155.744 62.82 155.435 62.511C155.13 62.1985 154.732 62.0423 154.242 62.0423H151.126V65.3874ZM151.126 61.4563H153.714C154.116 61.4563 154.465 61.3906 154.764 61.2592C155.066 61.1243 155.298 60.9361 155.462 60.6946C155.625 60.4496 155.707 60.1673 155.707 59.8477C155.703 59.3967 155.518 59.0487 155.153 58.8036C154.79 58.555 154.274 58.4308 153.603 58.4308H151.126V61.4563ZM160.971 66.1758C160.498 66.1758 160.065 66.0817 159.671 65.8935C159.28 65.7053 158.966 65.43 158.728 65.0678C158.494 64.7056 158.377 64.2653 158.377 63.7468C158.377 63.4059 158.437 63.1058 158.558 62.8466C158.678 62.5874 158.865 62.3636 159.117 62.1754C159.369 61.9872 159.692 61.8327 160.086 61.712C160.481 61.5877 160.951 61.4918 161.498 61.4244C161.914 61.3746 162.285 61.3267 162.611 61.2805C162.938 61.2308 163.194 61.1545 163.378 61.0515C163.567 60.9485 163.661 60.7923 163.661 60.5827V60.2418C163.661 59.6452 163.472 59.1712 163.096 58.8196C162.72 58.468 162.201 58.2923 161.541 58.2923C160.955 58.2923 160.461 58.4219 160.06 58.6811C159.662 58.9368 159.383 59.267 159.224 59.6719L158.611 59.4428C158.767 59.0522 158.993 58.7273 159.287 58.468C159.586 58.2088 159.927 58.0153 160.31 57.8874C160.697 57.7596 161.102 57.6957 161.525 57.6957C161.89 57.6957 162.238 57.7472 162.569 57.8501C162.903 57.9531 163.199 58.1094 163.458 58.3189C163.721 58.5284 163.929 58.7965 164.081 59.1232C164.234 59.4464 164.311 59.8335 164.311 60.2844V66H163.661V64.5245H163.613C163.471 64.8299 163.275 65.1087 163.027 65.3608C162.782 65.6094 162.485 65.8082 162.137 65.9574C161.793 66.103 161.404 66.1758 160.971 66.1758ZM161.035 65.5739C161.546 65.5739 161.999 65.4496 162.393 65.201C162.791 64.9489 163.101 64.6044 163.325 64.1676C163.549 63.7308 163.661 63.2354 163.661 62.6815V61.4776C163.579 61.5487 163.46 61.6126 163.304 61.6694C163.151 61.7227 162.977 61.7706 162.782 61.8132C162.59 61.8523 162.388 61.8878 162.175 61.9197C161.965 61.9482 161.761 61.9748 161.562 61.9996C160.965 62.0707 160.479 62.1808 160.102 62.3299C159.73 62.4755 159.456 62.6673 159.282 62.9052C159.112 63.1431 159.026 63.4308 159.026 63.7681C159.026 64.3256 159.218 64.766 159.602 65.0891C159.985 65.4123 160.463 65.5739 161.035 65.5739ZM165.869 58.4361V57.8182H172.005V58.4361H169.278V66H168.628V58.4361H165.869ZM174.819 65.1531L179.512 57.8182H180.337V66H179.687V58.6651L175 66H174.169V57.8182H174.819V65.1531ZM186.371 66V65.3821H186.584C186.922 65.3821 187.188 65.3235 187.383 65.2063C187.578 65.0856 187.724 64.8903 187.82 64.6204C187.919 64.3505 187.99 63.9901 188.033 63.5391C188.076 63.0845 188.113 62.5217 188.145 61.8505L188.353 57.8182H193.296V66H192.651V58.4361H188.965L188.779 62.021C188.747 62.6815 188.701 63.2603 188.64 63.7575C188.583 64.2546 188.486 64.6701 188.347 65.0039C188.212 65.3342 188.008 65.5827 187.735 65.7496C187.461 65.9165 187.092 66 186.627 66H186.371ZM199.215 66.1705C198.476 66.1705 197.834 65.9876 197.287 65.6218C196.74 65.256 196.317 64.7553 196.019 64.1197C195.721 63.484 195.572 62.7596 195.572 61.9464C195.572 61.1296 195.721 60.4016 196.019 59.7624C196.321 59.1232 196.735 58.619 197.26 58.2496C197.786 57.8803 198.386 57.6957 199.061 57.6957C199.519 57.6957 199.952 57.788 200.36 57.9727C200.772 58.1538 201.134 58.4165 201.447 58.761C201.763 59.1055 202.01 59.521 202.187 60.0075C202.369 60.494 202.459 61.0408 202.459 61.6481V62.0529H195.982V61.4616H201.809C201.809 60.8686 201.688 60.3342 201.447 59.8583C201.206 59.3825 200.877 59.0043 200.462 58.7237C200.046 58.4432 199.579 58.3029 199.061 58.3029C198.517 58.3029 198.033 58.4556 197.606 58.761C197.184 59.0629 196.848 59.4712 196.6 59.9862C196.355 60.5011 196.227 61.0763 196.216 61.712V61.9783C196.216 62.6602 196.335 63.2727 196.573 63.8161C196.815 64.3558 197.159 64.7837 197.606 65.0998C198.054 65.4123 198.59 65.5685 199.215 65.5685C199.663 65.5685 200.044 65.494 200.36 65.3448C200.68 65.1921 200.941 65.0075 201.143 64.7908C201.346 64.5742 201.498 64.3647 201.601 64.1623L202.193 64.402C202.068 64.6754 201.875 64.9489 201.612 65.2223C201.353 65.4922 201.023 65.7177 200.621 65.8988C200.224 66.0799 199.755 66.1705 199.215 66.1705ZM209.378 57.8182V58.4361H205.346V66H204.696V57.8182H209.378ZM211.537 66V57.8182H212.187V61.6161H213.13L216.267 57.8182H217.109L213.849 61.744L217.205 66H216.374L213.423 62.234H212.187V66H211.537ZM221.669 66.1705C220.994 66.1705 220.394 65.9893 219.868 65.6271C219.343 65.2614 218.929 64.7589 218.627 64.1197C218.325 63.4805 218.174 62.7525 218.174 61.9357C218.174 61.1154 218.325 60.3874 218.627 59.7518C218.929 59.1126 219.343 58.6101 219.868 58.2443C220.394 57.8786 220.994 57.6957 221.669 57.6957C222.343 57.6957 222.943 57.8786 223.469 58.2443C223.994 58.6101 224.408 59.1126 224.71 59.7518C225.012 60.391 225.163 61.119 225.163 61.9357C225.163 62.7525 225.012 63.4805 224.71 64.1197C224.408 64.7589 223.994 65.2614 223.469 65.6271C222.943 65.9893 222.343 66.1705 221.669 66.1705ZM221.669 65.5685C222.24 65.5685 222.739 65.407 223.165 65.0838C223.595 64.7607 223.927 64.3239 224.161 63.7734C224.399 63.223 224.518 62.6104 224.518 61.9357C224.518 61.261 224.399 60.6502 224.161 60.1033C223.923 59.5529 223.591 59.1161 223.165 58.793C222.739 58.4663 222.24 58.3029 221.669 58.3029C221.097 58.3029 220.598 58.4663 220.172 58.793C219.746 59.1161 219.414 59.5529 219.176 60.1033C218.938 60.6502 218.819 61.261 218.819 61.9357C218.819 62.6104 218.936 63.223 219.17 63.7734C219.408 64.3239 219.74 64.7607 220.166 65.0838C220.596 65.407 221.097 65.5685 221.669 65.5685Z" fill="white"/>
<path d="M86.9631 39H83.5881L89.733 21.5455H93.6364L99.7898 39H96.4148L91.7528 25.125H91.6165L86.9631 39ZM87.0739 32.1562H96.2784V34.696H87.0739V32.1562ZM107.247 44.1818C106.139 44.1818 105.188 44.0313 104.392 43.7301C103.597 43.4347 102.957 43.0369 102.474 42.5369C101.991 42.0369 101.656 41.483 101.469 40.875L104.247 40.2017C104.372 40.4574 104.554 40.7102 104.793 40.9602C105.031 41.2159 105.352 41.4261 105.756 41.5909C106.165 41.7614 106.679 41.8466 107.298 41.8466C108.173 41.8466 108.898 41.6335 109.472 41.2074C110.045 40.7869 110.332 40.0938 110.332 39.1278V36.6477H110.179C110.02 36.9659 109.787 37.2926 109.48 37.6278C109.179 37.9631 108.778 38.2443 108.278 38.4716C107.784 38.6989 107.162 38.8125 106.412 38.8125C105.406 38.8125 104.494 38.5767 103.676 38.1051C102.864 37.6278 102.216 36.9176 101.733 35.9744C101.256 35.0256 101.017 33.8381 101.017 32.4119C101.017 30.9744 101.256 29.7614 101.733 28.7727C102.216 27.7784 102.866 27.0256 103.685 26.5142C104.503 25.9972 105.415 25.7386 106.42 25.7386C107.188 25.7386 107.818 25.8693 108.312 26.1307C108.812 26.3864 109.21 26.696 109.506 27.0597C109.801 27.4176 110.026 27.7557 110.179 28.0739H110.349V25.9091H113.392V39.2131C113.392 40.3324 113.125 41.2585 112.591 41.9915C112.057 42.7244 111.327 43.2727 110.401 43.6364C109.474 44 108.423 44.1818 107.247 44.1818ZM107.273 36.392C107.926 36.392 108.483 36.233 108.943 35.9148C109.403 35.5966 109.753 35.1392 109.991 34.5426C110.23 33.946 110.349 33.2301 110.349 32.3949C110.349 31.571 110.23 30.8494 109.991 30.2301C109.759 29.6108 109.412 29.1307 108.952 28.7898C108.497 28.4432 107.938 28.2699 107.273 28.2699C106.585 28.2699 106.011 28.4489 105.551 28.8068C105.091 29.1648 104.744 29.6562 104.511 30.2812C104.278 30.9006 104.162 31.6051 104.162 32.3949C104.162 33.196 104.278 33.8977 104.511 34.5C104.75 35.0966 105.099 35.5625 105.56 35.8977C106.026 36.2273 106.597 36.392 107.273 36.392ZM116.554 39V25.9091H119.545V28.0909H119.682C119.92 27.3352 120.33 26.7528 120.909 26.3438C121.494 25.929 122.162 25.7216 122.912 25.7216C123.082 25.7216 123.273 25.7301 123.483 25.7472C123.699 25.7585 123.878 25.7784 124.02 25.8068V28.6449C123.889 28.5994 123.682 28.5597 123.398 28.5256C123.119 28.4858 122.849 28.4659 122.588 28.4659C122.026 28.4659 121.52 28.5881 121.071 28.8324C120.628 29.071 120.278 29.4034 120.023 29.8295C119.767 30.2557 119.639 30.7472 119.639 31.304V39H116.554ZM131.241 39.2557C129.962 39.2557 128.854 38.9744 127.917 38.4119C126.979 37.8494 126.252 37.0625 125.735 36.0511C125.224 35.0398 124.968 33.858 124.968 32.5057C124.968 31.1534 125.224 29.9687 125.735 28.9517C126.252 27.9347 126.979 27.1449 127.917 26.5824C128.854 26.0199 129.962 25.7386 131.241 25.7386C132.519 25.7386 133.627 26.0199 134.565 26.5824C135.502 27.1449 136.227 27.9347 136.738 28.9517C137.255 29.9687 137.513 31.1534 137.513 32.5057C137.513 33.858 137.255 35.0398 136.738 36.0511C136.227 37.0625 135.502 37.8494 134.565 38.4119C133.627 38.9744 132.519 39.2557 131.241 39.2557ZM131.258 36.7841C131.951 36.7841 132.531 36.5937 132.996 36.2131C133.462 35.8267 133.809 35.3097 134.036 34.6619C134.269 34.0142 134.386 33.2926 134.386 32.4972C134.386 31.696 134.269 30.9716 134.036 30.3239C133.809 29.6705 133.462 29.1506 132.996 28.7642C132.531 28.3778 131.951 28.1847 131.258 28.1847C130.548 28.1847 129.957 28.3778 129.485 28.7642C129.019 29.1506 128.67 29.6705 128.437 30.3239C128.21 30.9716 128.096 31.696 128.096 32.4972C128.096 33.2926 128.21 34.0142 128.437 34.6619C128.67 35.3097 129.019 35.8267 129.485 36.2131C129.957 36.5937 130.548 36.7841 131.258 36.7841ZM138.54 24.196V21.5455H152.467V24.196H147.072V39H143.935V24.196H138.54ZM158.912 39.2557C157.599 39.2557 156.466 38.983 155.511 38.4375C154.563 37.8864 153.832 37.108 153.321 36.1023C152.81 35.0909 152.554 33.9006 152.554 32.5312C152.554 31.1847 152.81 30.0028 153.321 28.9858C153.838 27.9631 154.56 27.1676 155.486 26.5994C156.412 26.0256 157.5 25.7386 158.75 25.7386C159.557 25.7386 160.318 25.8693 161.034 26.1307C161.756 26.3864 162.392 26.7841 162.943 27.3239C163.5 27.8636 163.938 28.5511 164.256 29.3864C164.574 30.2159 164.733 31.2045 164.733 32.3523V33.2983H154.003V31.2188H161.776C161.77 30.6278 161.642 30.1023 161.392 29.642C161.142 29.1761 160.793 28.8097 160.344 28.5426C159.901 28.2756 159.384 28.142 158.793 28.142C158.162 28.142 157.608 28.2955 157.131 28.6023C156.653 28.9034 156.281 29.3011 156.014 29.7955C155.753 30.2841 155.619 30.821 155.614 31.4062V33.2216C155.614 33.983 155.753 34.6364 156.031 35.1818C156.31 35.7216 156.699 36.1364 157.199 36.4261C157.699 36.7102 158.284 36.8523 158.955 36.8523C159.403 36.8523 159.81 36.7898 160.173 36.6648C160.537 36.5341 160.852 36.3438 161.119 36.0938C161.386 35.8438 161.588 35.5341 161.724 35.1648L164.605 35.4886C164.423 36.25 164.077 36.9148 163.565 37.483C163.06 38.0455 162.412 38.483 161.622 38.7955C160.832 39.1023 159.929 39.2557 158.912 39.2557ZM173.053 39.2557C171.746 39.2557 170.624 38.9688 169.687 38.3949C168.755 37.821 168.036 37.0284 167.531 36.017C167.031 35 166.781 33.8295 166.781 32.5057C166.781 31.1761 167.036 30.0028 167.548 28.9858C168.059 27.9631 168.781 27.1676 169.712 26.5994C170.65 26.0256 171.758 25.7386 173.036 25.7386C174.099 25.7386 175.039 25.9347 175.857 26.3267C176.681 26.7131 177.337 27.2614 177.826 27.9716C178.315 28.6761 178.593 29.5 178.661 30.4432H175.712C175.593 29.8125 175.309 29.2869 174.86 28.8665C174.417 28.4403 173.823 28.2273 173.079 28.2273C172.448 28.2273 171.894 28.3977 171.417 28.7386C170.94 29.0739 170.567 29.5568 170.3 30.1875C170.039 30.8182 169.908 31.5739 169.908 32.4545C169.908 33.3466 170.039 34.1136 170.3 34.7557C170.562 35.392 170.928 35.8835 171.4 36.2301C171.877 36.571 172.437 36.7415 173.079 36.7415C173.533 36.7415 173.94 36.6562 174.298 36.4858C174.661 36.3097 174.965 36.0568 175.21 35.7273C175.454 35.3977 175.621 34.9972 175.712 34.5256H178.661C178.587 35.4517 178.315 36.2727 177.843 36.9886C177.371 37.6989 176.729 38.2557 175.917 38.6591C175.104 39.0568 174.15 39.2557 173.053 39.2557ZM184.28 31.3295V39H181.195V21.5455H184.212V28.1335H184.365C184.672 27.3949 185.146 26.8125 185.788 26.3864C186.436 25.9545 187.26 25.7386 188.26 25.7386C189.169 25.7386 189.962 25.929 190.638 26.3097C191.314 26.6903 191.837 27.2472 192.206 27.9801C192.581 28.7131 192.768 29.608 192.768 30.6648V39H189.683V31.142C189.683 30.2614 189.456 29.5767 189.001 29.0881C188.553 28.5937 187.922 28.3466 187.109 28.3466C186.564 28.3466 186.075 28.4659 185.643 28.7045C185.217 28.9375 184.882 29.2756 184.638 29.7188C184.399 30.1619 184.28 30.6989 184.28 31.3295Z" fill="white"/>
<path d="M61.3594 45.7188C56.5655 45.7233 51.8717 47.0898 47.8245 49.6592C43.7774 52.2286 40.5437 55.8951 38.5 60.2314C36.4563 55.8951 33.2226 52.2286 29.1755 49.6592C25.1283 47.0898 20.4345 45.7233 15.6406 45.7188H2.40625V48.125C2.40625 62.0566 13.7403 73.3906 27.6719 73.3906H49.3281C63.2597 73.3906 74.5938 62.0566 74.5938 48.125V45.7188H61.3594ZM27.6719 68.5781C17.2075 68.5781 8.55362 60.6798 7.35952 50.5312H15.6406C26.105 50.5312 34.7589 58.4296 35.953 68.5781H27.6719ZM49.3281 68.5781H41.047C42.2411 58.4296 50.895 50.5312 61.3594 50.5312H69.6405C68.4464 60.6798 59.7925 68.5781 49.3281 68.5781Z" fill="white"/>
<path d="M25.4501 39.5186C25.9052 42.2246 27.1962 44.7201 29.1418 46.6551L29.8467 47.3598H30.8433C33.5873 47.3675 36.2648 46.5157 38.5 44.9241C40.7352 46.5159 43.4126 47.3678 46.1567 47.3604H47.1533L47.8582 46.6557C49.8038 44.7207 51.0947 42.2252 51.5498 39.5192C54.2558 39.0641 56.7514 37.7732 58.6863 35.8276L59.391 35.1227V34.126C59.3989 31.3819 58.5471 28.7041 56.9553 26.4688C58.5471 24.2336 59.3991 21.5561 59.3917 18.8121V17.8154L58.6869 17.1105C56.752 15.1649 54.2564 13.874 51.5504 13.4189C51.0953 10.7129 49.8044 8.21737 47.8588 6.28242L47.1539 5.57769H46.1573C43.4131 5.56998 40.7354 6.42174 38.5 8.01342C36.2649 6.42155 33.5873 5.56958 30.8433 5.57709H29.8467L29.1418 6.28182C27.1962 8.21677 25.9052 10.7123 25.4501 13.4183C22.7442 13.8734 20.2486 15.1643 18.3137 17.1099L17.6089 17.8148V18.8115C17.6012 21.5556 18.453 24.2333 20.0447 26.4688C18.4528 28.7039 17.6008 31.3814 17.6083 34.1254V35.1221L18.3131 35.827C20.2482 37.7727 22.744 39.0636 25.4501 39.5186ZM24.8883 24.7674C23.5538 23.4409 22.7059 21.7028 22.482 19.8346C23.9614 18.6713 25.79 18.0415 27.6719 18.0469H30.0781V15.6406C30.0727 13.759 30.7024 11.9305 31.8654 10.4512C33.7336 10.6751 35.4717 11.523 36.7982 12.8575L38.5 14.5578L40.2014 12.8564C41.5279 11.5219 43.2659 10.6741 45.1342 10.4502C46.2975 11.9297 46.9274 13.7585 46.9219 15.6406V18.0469H49.3281C51.2098 18.0414 53.0382 18.6711 54.5175 19.8341C54.2936 21.7024 53.4458 23.4404 52.1112 24.7669L50.4109 26.4688L52.1124 28.1703C53.447 29.4968 54.2948 31.2348 54.5187 33.1031C53.0392 34.2664 51.2102 34.8963 49.3281 34.8906H46.9219V37.2969C46.9273 39.1785 46.2976 41.007 45.1346 42.4863C43.2664 42.2624 41.5283 41.4145 40.2018 40.08L38.5 38.3797L36.7985 40.0806C35.472 41.4151 33.7339 42.263 31.8657 42.4869C30.7025 41.0075 30.0726 39.1788 30.0781 37.2969V34.8906H27.6719C25.7902 34.8961 23.9617 34.2664 22.4825 33.1034C22.7064 31.2351 23.5542 29.4971 24.8887 28.1706L26.5891 26.4688L24.8883 24.7674Z" fill="white"/>
</svg>
