<svg width="64" height="64" viewBox="0 0 64 64" fill="none" xmlns="http://www.w3.org/2000/svg">
<path d="M14 20C13.4696 20 12.9609 20.2107 12.5858 20.5858C12.2107 20.9609 12 21.4696 12 22C12 22.5304 12.2107 23.0391 12.5858 23.4142C12.9609 23.7893 13.4696 24 14 24H42C42.5304 24 43.0391 23.7893 43.4142 23.4142C43.7893 23.0391 44 22.5304 44 22C44 21.4696 43.7893 20.9609 43.4142 20.5858C43.0391 20.2107 42.5304 20 42 20H14ZM14 28C13.4696 28 12.9609 28.2107 12.5858 28.5858C12.2107 28.9609 12 29.4696 12 30V38C12 38.5304 12.2107 39.0391 12.5858 39.4142C12.9609 39.7893 13.4696 40 14 40H22C22.5304 40 23.0391 39.7893 23.4142 39.4142C23.7893 39.0391 24 38.5304 24 38V30C24 29.4696 23.7893 28.9609 23.4142 28.5858C23.0391 28.2107 22.5304 28 22 28H14ZM16 36V32H20V36H16ZM30 28C29.4696 28 28.9609 28.2107 28.5858 28.5858C28.2107 28.9609 28 29.4696 28 30C28 30.5304 28.2107 31.0391 28.5858 31.4142C28.9609 31.7893 29.4696 32 30 32H42C42.5304 32 43.0391 31.7893 43.4142 31.4142C43.7893 31.0391 44 30.5304 44 30C44 29.4696 43.7893 28.9609 43.4142 28.5858C43.0391 28.2107 42.5304 28 42 28H30ZM30 36C29.4696 36 28.9609 36.2107 28.5858 36.5858C28.2107 36.9609 28 37.4696 28 38C28 38.5304 28.2107 39.0391 28.5858 39.4142C28.9609 39.7893 29.4696 40 30 40H42C42.5304 40 43.0391 39.7893 43.4142 39.4142C43.7893 39.0391 44 38.5304 44 38C44 37.4696 43.7893 36.9609 43.4142 36.5858C43.0391 36.2107 42.5304 36 42 36H30ZM4 16C4 13.8783 4.84285 11.8434 6.34315 10.3431C7.84344 8.84285 9.87827 8 12 8H44C46.1217 8 48.1566 8.84285 49.6569 10.3431C51.1571 11.8434 52 13.8783 52 16C54.1217 16 56.1566 16.8429 57.6569 18.3431C59.1571 19.8434 60 21.8783 60 24V42C60 44.6522 58.9464 47.1957 57.0711 49.0711C55.1957 50.9464 52.6522 52 50 52H14C11.3478 52 8.8043 50.9464 6.92893 49.0711C5.05357 47.1957 4 44.6522 4 42V16ZM50 42C49.4696 42 48.9609 41.7893 48.5858 41.4142C48.2107 41.0391 48 40.5304 48 40V16C48 14.9391 47.5786 13.9217 46.8284 13.1716C46.0783 12.4214 45.0609 12 44 12H12C10.9391 12 9.92172 12.4214 9.17157 13.1716C8.42143 13.9217 8 14.9391 8 16V42C8 43.5913 8.63214 45.1174 9.75736 46.2426C10.8826 47.3679 12.4087 48 14 48H50C51.5913 48 53.1174 47.3679 54.2426 46.2426C55.3679 45.1174 56 43.5913 56 42V24C56 22.9391 55.5786 21.9217 54.8284 21.1716C54.0783 20.4214 53.0609 20 52 20V40C52 40.5304 51.7893 41.0391 51.4142 41.4142C51.0391 41.7893 50.5304 42 50 42Z" fill="white"/>
</svg>
