<svg width="50" height="50" viewBox="0 0 50 50" fill="none" xmlns="http://www.w3.org/2000/svg">
<path d="M12.5 12.5C12.5 11.9475 12.7195 11.4176 13.1102 11.0269C13.5009 10.6362 14.0308 10.4167 14.5833 10.4167H35.4167C35.9692 10.4167 36.4991 10.6362 36.8898 11.0269C37.2805 11.4176 37.5 11.9475 37.5 12.5C37.5 13.0525 37.2805 13.5824 36.8898 13.9731C36.4991 14.3638 35.9692 14.5833 35.4167 14.5833H14.5833C14.0308 14.5833 13.5009 14.3638 13.1102 13.9731C12.7195 13.5824 12.5 13.0525 12.5 12.5ZM12.5 20.8333C12.5 20.2808 12.7195 19.7509 13.1102 19.3602C13.5009 18.9695 14.0308 18.75 14.5833 18.75H35.4167C35.9692 18.75 36.4991 18.9695 36.8898 19.3602C37.2805 19.7509 37.5 20.2808 37.5 20.8333C37.5 21.3859 37.2805 21.9158 36.8898 22.3065C36.4991 22.6972 35.9692 22.9167 35.4167 22.9167H14.5833C14.0308 22.9167 13.5009 22.6972 13.1102 22.3065C12.7195 21.9158 12.5 21.3859 12.5 20.8333ZM14.5833 27.0833C14.0308 27.0833 13.5009 27.3028 13.1102 27.6935C12.7195 28.0842 12.5 28.6141 12.5 29.1667C12.5 29.7192 12.7195 30.2491 13.1102 30.6398C13.5009 31.0305 14.0308 31.25 14.5833 31.25H35.4167C35.9692 31.25 36.4991 31.0305 36.8898 30.6398C37.2805 30.2491 37.5 29.7192 37.5 29.1667C37.5 28.6141 37.2805 28.0842 36.8898 27.6935C36.4991 27.3028 35.9692 27.0833 35.4167 27.0833H14.5833ZM12.5 37.5C12.5 36.9475 12.7195 36.4176 13.1102 36.0269C13.5009 35.6362 14.0308 35.4167 14.5833 35.4167H22.9167C23.4692 35.4167 23.9991 35.6362 24.3898 36.0269C24.7805 36.4176 25 36.9475 25 37.5C25 38.0525 24.7805 38.5824 24.3898 38.9731C23.9991 39.3638 23.4692 39.5833 22.9167 39.5833H14.5833C14.0308 39.5833 13.5009 39.3638 13.1102 38.9731C12.7195 38.5824 12.5 38.0525 12.5 37.5Z" fill="white"/>
<path fill-rule="evenodd" clip-rule="evenodd" d="M4.16675 8.33334C4.16675 6.67573 4.82523 5.08602 5.99733 3.91392C7.16943 2.74182 8.75914 2.08334 10.4167 2.08334H39.5834C41.241 2.08334 42.8307 2.74182 44.0028 3.91392C45.1749 5.08602 45.8334 6.67573 45.8334 8.33334V41.6667C45.8334 43.3243 45.1749 44.914 44.0028 46.0861C42.8307 47.2582 41.241 47.9167 39.5834 47.9167H10.4167C8.75914 47.9167 7.16943 47.2582 5.99733 46.0861C4.82523 44.914 4.16675 43.3243 4.16675 41.6667V8.33334ZM10.4167 6.25H39.5834C40.1359 6.25 40.6659 6.4695 41.0566 6.8602C41.4473 7.2509 41.6667 7.7808 41.6667 8.33334V41.6667C41.6667 42.2192 41.4473 42.7491 41.0566 43.1398C40.6659 43.5305 40.1359 43.75 39.5834 43.75H10.4167C9.86421 43.75 9.33431 43.5305 8.94361 43.1398C8.55291 42.7491 8.33341 42.2192 8.33341 41.6667V8.33334C8.33341 7.7808 8.55291 7.2509 8.94361 6.8602C9.33431 6.4695 9.86421 6.25 10.4167 6.25Z" fill="white"/>
</svg>
