<svg width="48" height="48" viewBox="0 0 48 48" fill="none" xmlns="http://www.w3.org/2000/svg">
<g filter="url(#filter0_d_23_20)">
<path d="M10.25 0C8.5924 0 7.00269 0.65848 5.83058 1.83058C4.65848 3.00269 4 4.5924 4 6.25V28.75C4 30.4076 4.65848 31.9973 5.83058 33.1694C7.00269 34.3415 8.5924 35 10.25 35H32.75C34.4076 35 35.9973 34.3415 37.1694 33.1694C38.3415 31.9973 39 30.4076 39 28.75V6.25C39 4.5924 38.3415 3.00269 37.1694 1.83058C35.9973 0.65848 34.4076 0 32.75 0H10.25ZM22.75 11.25V16.25H27.75C28.0815 16.25 28.3995 16.3817 28.6339 16.6161C28.8683 16.8505 29 17.1685 29 17.5C29 17.8315 28.8683 18.1495 28.6339 18.3839C28.3995 18.6183 28.0815 18.75 27.75 18.75H22.75V23.75C22.75 24.0815 22.6183 24.3995 22.3839 24.6339C22.1495 24.8683 21.8315 25 21.5 25C21.1685 25 20.8505 24.8683 20.6161 24.6339C20.3817 24.3995 20.25 24.0815 20.25 23.75V18.75H15.25C14.9185 18.75 14.6005 18.6183 14.3661 18.3839C14.1317 18.1495 14 17.8315 14 17.5C14 17.1685 14.1317 16.8505 14.3661 16.6161C14.6005 16.3817 14.9185 16.25 15.25 16.25H20.25V11.25C20.25 10.9185 20.3817 10.6005 20.6161 10.3661C20.8505 10.1317 21.1685 10 21.5 10C21.8315 10 22.1495 10.1317 22.3839 10.3661C22.6183 10.6005 22.75 10.9185 22.75 11.25ZM17.75 40C15.4598 40.0003 13.2608 39.1028 11.625 37.5H35.25C36.9076 37.5 38.4973 36.8415 39.6694 35.6694C40.8415 34.4973 41.5 32.9076 41.5 31.25V7.625C43.0475 9.205 44 11.365 44 13.75V31.25C44 33.5706 43.0781 35.7962 41.4372 37.4372C39.7962 39.0781 37.5706 40 35.25 40H17.75Z" fill="#B8D088"/>
</g>
<defs>
<filter id="filter0_d_23_20" x="0" y="0" width="48" height="48" filterUnits="userSpaceOnUse" color-interpolation-filters="sRGB">
<feFlood flood-opacity="0" result="BackgroundImageFix"/>
<feColorMatrix in="SourceAlpha" type="matrix" values="0 0 0 0 0 0 0 0 0 0 0 0 0 0 0 0 0 0 127 0" result="hardAlpha"/>
<feOffset dy="4"/>
<feGaussianBlur stdDeviation="2"/>
<feComposite in2="hardAlpha" operator="out"/>
<feColorMatrix type="matrix" values="0 0 0 0 0 0 0 0 0 0 0 0 0 0 0 0 0 0 0.25 0"/>
<feBlend mode="normal" in2="BackgroundImageFix" result="effect1_dropShadow_23_20"/>
<feBlend mode="normal" in="SourceGraphic" in2="effect1_dropShadow_23_20" result="shape"/>
</filter>
</defs>
</svg>
