<svg width="60" height="60" viewBox="0 0 60 60" fill="none" xmlns="http://www.w3.org/2000/svg">
<path fill-rule="evenodd" clip-rule="evenodd" d="M40.909 21.8182C40.909 24.7114 39.7597 27.4862 37.7138 29.5321C35.668 31.5779 32.8932 32.7273 29.9999 32.7273C27.1066 32.7273 24.3319 31.5779 22.286 29.5321C20.2402 27.4862 19.0908 24.7114 19.0908 21.8182C19.0908 18.9249 20.2402 16.1501 22.286 14.1043C24.3319 12.0584 27.1066 10.9091 29.9999 10.9091C32.8932 10.9091 35.668 12.0584 37.7138 14.1043C39.7597 16.1501 40.909 18.9249 40.909 21.8182ZM35.4545 21.8182C35.4545 23.2648 34.8798 24.6522 33.8569 25.6751C32.8339 26.698 31.4465 27.2727 29.9999 27.2727C28.5533 27.2727 27.1659 26.698 26.143 25.6751C25.12 24.6522 24.5454 23.2648 24.5454 21.8182C24.5454 20.3715 25.12 18.9842 26.143 17.9612C27.1659 16.9383 28.5533 16.3636 29.9999 16.3636C31.4465 16.3636 32.8339 16.9383 33.8569 17.9612C34.8798 18.9842 35.4545 20.3715 35.4545 21.8182Z" fill="white"/>
<path fill-rule="evenodd" clip-rule="evenodd" d="M30 0C13.4318 0 0 13.4318 0 30C0 46.5682 13.4318 60 30 60C46.5682 60 60 46.5682 60 30C60 13.4318 46.5682 0 30 0ZM5.45455 30C5.45455 35.7 7.39909 40.9473 10.6582 45.1145C12.9476 42.1094 15.9004 39.674 19.2863 37.9984C22.6722 36.3227 26.3994 35.4521 30.1773 35.4545C33.9065 35.4502 37.5875 36.2975 40.9394 37.9319C44.2914 39.5663 47.2259 41.9446 49.5191 44.8855C51.8821 41.7862 53.4732 38.1688 54.1606 34.3325C54.8481 30.4963 54.6121 26.5515 53.4723 22.8245C52.3324 19.0975 50.3215 15.6956 47.6059 12.9001C44.8902 10.1046 41.548 7.99598 37.8556 6.74866C34.1632 5.50134 30.2269 5.1512 26.3723 5.7272C22.5178 6.3032 18.8558 7.78879 15.6894 10.0611C12.5229 12.3333 9.94312 15.3269 8.16335 18.7942C6.38358 22.2614 5.45504 26.1026 5.45455 30ZM30 54.5455C24.3652 54.5546 18.9004 52.6161 14.5309 49.0582C16.2895 46.5399 18.6305 44.4837 21.3548 43.0649C24.079 41.646 27.1057 40.9064 30.1773 40.9091C33.2105 40.9064 36.2005 41.6276 38.899 43.0127C41.5976 44.3977 43.9266 46.4067 45.6927 48.8727C41.2895 52.5464 35.7345 54.5544 30 54.5455Z" fill="white"/>
</svg>
