<svg width="61" height="61" viewBox="0 0 61 61" fill="none" xmlns="http://www.w3.org/2000/svg">
<path d="M33.0416 50.8333C33.7157 50.8333 34.3622 51.1011 34.8388 51.5778C35.3155 52.0544 35.5833 52.7009 35.5833 53.375C35.5833 54.0491 35.3155 54.6956 34.8388 55.1722C34.3622 55.6489 33.7157 55.9167 33.0416 55.9167C32.3675 55.9167 31.721 55.6489 31.2444 55.1722C30.7677 54.6956 30.4999 54.0491 30.4999 53.375C30.4999 52.7009 30.7677 52.0544 31.2444 51.5778C31.721 51.1011 32.3675 50.8333 33.0416 50.8333ZM24.1458 48.2917C24.8199 48.2917 25.4663 48.5594 25.943 49.0361C26.4196 49.5128 26.6874 50.1592 26.6874 50.8333C26.6874 51.5074 26.4196 52.1539 25.943 52.6306C25.4663 53.1072 24.8199 53.375 24.1458 53.375C23.4717 53.375 22.8252 53.1072 22.3485 52.6306C21.8719 52.1539 21.6041 51.5074 21.6041 50.8333C21.6041 50.1592 21.8719 49.5128 22.3485 49.0361C22.8252 48.5594 23.4717 48.2917 24.1458 48.2917ZM41.9374 48.2917C42.6115 48.2917 43.258 48.5594 43.7347 49.0361C44.2113 49.5128 44.4791 50.1592 44.4791 50.8333C44.4791 51.5074 44.2113 52.1539 43.7347 52.6306C43.258 53.1072 42.6115 53.375 41.9374 53.375C41.2633 53.375 40.6169 53.1072 40.1402 52.6306C39.6635 52.1539 39.3958 51.5074 39.3958 50.8333C39.3958 50.1592 39.6635 49.5128 40.1402 49.0361C40.6169 48.5594 41.2633 48.2917 41.9374 48.2917ZM33.0467 15.2729C41.0987 15.2729 45.6686 20.6028 46.332 27.0408H46.5353C47.7662 27.0391 48.9853 27.2799 50.123 27.7495C51.2608 28.2191 52.2949 28.9082 53.1663 29.7774C54.0377 30.6467 54.7293 31.6792 55.2017 32.8158C55.674 33.9524 55.9178 35.1709 55.9191 36.4018C55.9175 37.6324 55.6734 38.8506 55.2009 39.987C54.7285 41.1233 54.0368 42.1554 53.1654 43.0244C52.294 43.8934 51.26 44.5823 50.1224 45.0517C48.9849 45.5211 47.7659 45.7618 46.5353 45.7602H19.5555C18.3249 45.7618 17.106 45.5211 15.9684 45.0517C14.8308 44.5823 13.7968 43.8934 12.9254 43.0244C12.054 42.1554 11.3624 41.1233 10.8899 39.987C10.4174 38.8506 10.1733 37.6324 10.1717 36.4018C10.173 35.1709 10.4168 33.9524 10.8891 32.8158C11.3615 31.6792 12.0531 30.6467 12.9245 29.7774C13.7959 28.9082 14.83 28.2191 15.9678 27.7495C17.1055 27.2799 18.3247 27.0391 19.5555 27.0408H19.7588C20.4273 20.5595 24.9947 15.2729 33.0467 15.2729ZM33.0467 19.0778C27.7803 19.0778 23.1926 23.2308 23.1926 28.9648C23.1926 29.8722 22.3818 30.5864 21.4541 30.5864H19.7004C16.4928 30.5864 13.8952 33.1281 13.8952 36.2696C13.8952 39.4085 16.4928 41.9528 19.6978 41.9528H46.393C49.598 41.9528 52.1956 39.4111 52.1956 36.2696C52.1956 33.1306 49.598 30.5864 46.393 30.5864H44.6392C43.7115 30.5864 42.9007 29.8748 42.9007 28.9648C42.9007 23.1571 38.3105 19.0778 33.0467 19.0778ZM11.0994 25.8335C11.2761 26.2592 11.2927 26.7345 11.1459 27.1714C10.9992 27.6083 10.6991 27.9773 10.3013 28.21L10.07 28.3243L7.71388 29.3003C7.26819 29.482 6.77027 29.4883 6.32009 29.3181C5.86991 29.1478 5.5008 28.8136 5.28684 28.3825C5.07289 27.9514 5.02994 27.4553 5.16661 26.9938C5.30328 26.5323 5.60946 26.1396 6.02368 25.8945L6.25497 25.7776L8.61109 24.8016C8.8424 24.7058 9.09031 24.6564 9.34068 24.6564C9.59104 24.6565 9.83896 24.7058 10.0703 24.8016C10.3016 24.8974 10.5117 25.0379 10.6887 25.2149C10.8658 25.392 11.0036 25.6022 11.0994 25.8335ZM27.5897 13.5496L27.1551 13.697C25.8329 14.1597 24.5834 14.8084 23.4443 15.6236C22.2204 15.2253 20.9029 15.2174 19.6743 15.6009C18.4456 15.9843 17.3666 16.7403 16.5866 17.7641C15.8065 18.7878 15.364 20.0288 15.3204 21.3151C15.2767 22.6015 15.634 23.8696 16.3428 24.9439C15.103 25.2911 13.9291 25.8408 12.8684 26.5706C11.7035 24.5683 11.2683 22.2243 11.637 19.9373C12.0057 17.6504 13.1555 15.5618 14.8906 14.0271C16.6258 12.4924 18.8391 11.6064 21.154 11.5198C23.4689 11.4332 25.7422 12.1514 27.5872 13.5522M7.47497 13.631L7.74184 13.7199L10.0954 14.6959C10.5368 14.882 10.892 15.2274 11.0903 15.6635C11.2885 16.0995 11.3154 16.5942 11.1654 17.0492C11.0155 17.5041 10.6998 17.8859 10.2811 18.1186C9.8624 18.3514 9.37146 18.4179 8.90593 18.3051L8.63651 18.2187L6.28293 17.2427C5.84036 17.0571 5.48404 16.7115 5.28512 16.2748C5.0862 15.8381 5.0593 15.3425 5.2098 14.8868C5.36029 14.4311 5.67712 14.049 6.09701 13.8167C6.5169 13.5843 7.00897 13.5164 7.47497 13.631ZM17.1714 6.04409L17.2858 6.27538L18.2618 8.62896C18.4461 9.07505 18.4543 9.57444 18.2848 10.0264C18.1153 10.4783 17.7806 10.849 17.3484 11.0639C16.9162 11.2787 16.4186 11.3215 15.956 11.1838C15.4934 11.0461 15.1003 10.738 14.856 10.3217L14.7391 10.0879L13.7631 7.73429C13.5814 7.2886 13.575 6.79068 13.7453 6.3405C13.9155 5.89032 14.2498 5.52121 14.6809 5.30725C15.112 5.0933 15.6081 5.05035 16.0696 5.18702C16.5311 5.32369 16.9263 5.62987 17.1714 6.04409ZM28.2328 5.23329C28.6552 5.40799 29.0008 5.72869 29.2066 6.13693C29.4123 6.54516 29.4645 7.01375 29.3536 7.45725L29.2647 7.72413L28.2912 10.0777C28.1079 10.5232 27.7627 10.8827 27.325 11.084C26.8873 11.2853 26.3897 11.3135 25.9321 11.1628C25.4746 11.0121 25.091 10.6937 24.8586 10.2718C24.6263 9.84978 24.5623 9.35546 24.6795 8.88821L24.7685 8.61879L25.7419 6.26521C25.8377 6.03389 25.9781 5.82369 26.1551 5.64664C26.3321 5.46958 26.5423 5.32913 26.7736 5.23331C27.0049 5.13748 27.2528 5.08816 27.5032 5.08816C27.7535 5.08816 28.0015 5.13747 28.2328 5.23329Z" fill="white"/>
</svg>
